<svg id="Capa_1" enable-background="new 0 0 512.274 512.274" height="512" viewBox="0 0 512.274 512.274" width="512" xmlns="http://www.w3.org/2000/svg"><g><g><g><path d="m228.792 182.918v-63.846c0-7.223 5.856-13.079 13.079-13.079h28.601c7.223 0 13.079 5.856 13.079 13.079v63.846" fill="#fd4755"/><path d="m270.472 105.993h-28.601c-7.223 0-13.079 5.856-13.079 13.079v1.921h8.911c17.037 0 30.849 13.811 30.849 30.849v31.076h15v-63.846c-.001-7.223-5.857-13.079-13.08-13.079z" fill="#fb2b3a"/><path d="m177.105 224.389v-20.787c0-2.551 1.652-4.808 4.083-5.579l73.213-23.229c1.152-.365 2.389-.365 3.541 0l73.213 23.229c2.431.771 4.083 3.029 4.083 5.579v20.787" fill="#ebebeb"/><path d="m331.154 198.022-25.917-8.223c0 10.819-8.771 19.59-19.59 19.59h-108.543v15h158.133v-20.787c0-2.551-1.652-4.808-4.083-5.58z" fill="#e2e2e2"/><path d="m167.131 308.919 8.547-33.156c.762-2.955-.147-6.091-2.371-8.181l-19.904-18.703c-1.006-.945-1.576-2.264-1.576-3.644v-15.847c0-2.761 2.239-5 5-5h198.688c2.761 0 5 2.239 5 5v15.847c0 1.38-.57 2.699-1.576 3.644l-19.904 18.703c-2.224 2.09-3.133 5.226-2.371 8.181l8.547 33.156" fill="#fd4755"/><path d="m360.515 245.235v-15.847c0-2.761-2.239-5-5-5h-25v13.34c0 6.17-2.55 12.066-7.047 16.291l-8.07 7.584c-6.148 5.777-8.66 14.445-6.554 22.614l6.367 24.701h30l-8.547-33.156c-.762-2.955.147-6.091 2.371-8.181l19.904-18.703c1.005-.944 1.576-2.262 1.576-3.643z" fill="#fb2b3a"/><path d="m179.756 408.412-37.793-74.335c-3.345-6.512-.425-14.494 6.333-17.31l103.05-42.938c3.088-1.286 6.561-1.286 9.649 0l103.05 42.938c6.758 2.816 9.678 10.797 6.333 17.31l-37.803 74.335z" fill="#ebebeb"/><path d="m364.046 316.767-8.121-3.384c-.159.411-.34.818-.546 1.219l-21.922 43.107c-9.744 19.16-29.419 31.227-50.914 31.227h-112.688l9.901 19.475h152.819l37.803-74.335c3.346-6.511.426-14.493-6.332-17.309z" fill="#e2e2e2"/><circle cx="256.171" cy="345.407" fill="#838383" r="24.243"/><path d="m267.608 324.029c1.98 3.513 3.116 7.566 3.116 11.886 0 13.389-10.854 24.243-24.243 24.243-4.136 0-8.029-1.039-11.437-2.865 4.157 7.374 12.058 12.357 21.127 12.357 13.389 0 24.243-10.854 24.243-24.243 0-9.253-5.185-17.292-12.806-21.378z" fill="#5a5a5a"/><g fill="#eaf6ff"><path d="m497.274 380.883h-63.721c-1.983 0-3.59 1.607-3.59 3.59 0 3.938 1.813 7.656 4.915 10.082l5.86 4.581c2.854 2.231 4.522 5.653 4.522 9.276h67.013v-12.528c.001-8.285-6.714-15.001-14.999-15.001z"/><path d="m15.274 380.883h88.863c1.983 0 3.59 1.607 3.59 3.59 0 3.938-1.813 7.656-4.915 10.082l-5.86 4.581c-2.854 2.231-4.522 5.653-4.522 9.276h-92.156v-12.528c0-8.285 6.716-15.001 15-15.001z"/><path d="m129.105 480.719 5.548-15.866c2.259-6.941 8.729-11.639 16.028-11.639h89.286c2.652 0 5.113 1.383 6.492 3.649l1.292 2.124c1.379 2.266 3.839 3.649 6.492 3.649h5.112c2.015 0 3.948.801 5.374 2.226l13.969 15.858"/></g></g><g><path d="m199.97 256.976h16.563c4.143 0 7.5-3.358 7.5-7.5s-3.357-7.5-7.5-7.5h-16.563c-4.143 0-7.5 3.358-7.5 7.5s3.357 7.5 7.5 7.5z"/><path d="m241.618 256.976h29.105c4.143 0 7.5-3.358 7.5-7.5s-3.357-7.5-7.5-7.5h-29.105c-4.143 0-7.5 3.358-7.5 7.5s3.358 7.5 7.5 7.5z"/><path d="m295.811 256.976h16.562c4.143 0 7.5-3.358 7.5-7.5s-3.357-7.5-7.5-7.5h-16.562c-4.143 0-7.5 3.358-7.5 7.5s3.357 7.5 7.5 7.5z"/><path d="m256.171 313.664c-17.503 0-31.743 14.24-31.743 31.743s14.24 31.743 31.743 31.743c4.143 0 7.5-3.357 7.5-7.5s-3.357-7.5-7.5-7.5c-9.232 0-16.743-7.511-16.743-16.743s7.511-16.743 16.743-16.743 16.743 7.511 16.743 16.743c0 4.143 3.357 7.5 7.5 7.5s7.5-3.357 7.5-7.5c0-17.503-14.24-31.743-31.743-31.743z"/><path d="m504.774 400.912h-53.52c-1.255-2.978-3.261-5.622-5.897-7.684l-5.859-4.581c-.107-.085-.212-.173-.312-.264h65.484c4.143 0 7.5-3.357 7.5-7.5s-3.357-7.5-7.5-7.5h-71.118c-6.115 0-11.09 4.975-11.09 11.09 0 6.288 2.842 12.116 7.797 15.99l.573.448h-86.029l32.247-63.407c2.547-4.961 2.909-10.809.993-16.045-1.916-5.237-5.966-9.471-11.113-11.615l-15.389-6.412-7.616-29.543c-.078-.304.016-.627.245-.842l19.904-18.703c2.504-2.353 3.939-5.673 3.939-9.109v-15.847c0-6.893-5.607-12.5-12.5-12.5h-12.777v-13.287c0-5.845-3.743-10.96-9.314-12.728l-73.213-23.229c-2.643-.839-5.436-.838-8.078 0l-15.841 5.026v-53.597c0-3.077 2.503-5.58 5.58-5.58h28.601c3.076 0 5.579 2.503 5.579 5.58v29.233c0 4.142 3.357 7.5 7.5 7.5s7.5-3.358 7.5-7.5v-29.233c0-11.348-9.231-20.58-20.579-20.58h-28.601c-11.348 0-20.58 9.232-20.58 20.58v58.357l-42.372 13.444c-5.571 1.768-9.314 6.883-9.314 12.728v13.287h-12.777c-6.893 0-12.5 5.607-12.5 12.5v15.847c0 3.436 1.436 6.756 3.94 9.11l19.902 18.7c.23.217.325.541.246.846l-7.615 29.541-15.39 6.412c-5.147 2.146-9.198 6.379-11.113 11.615-1.916 5.237-1.554 11.085.98 16.018l32.25 63.435h-60.67l.573-.448c4.954-3.873 7.796-9.701 7.796-15.99 0-6.115-4.975-11.09-11.09-11.09h-96.636c-4.143 0-7.5 3.357-7.5 7.5s3.357 7.5 7.5 7.5h91.005c-.1.091-.204.179-.312.263l-5.86 4.581c-2.637 2.062-4.643 4.707-5.897 7.685h-78.662c-4.143 0-7.5 3.357-7.5 7.5s3.357 7.5 7.5 7.5h171.958c.01 0 .019.002.029.002.011 0 .022-.002.034-.002h324.979c4.143 0 7.5-3.357 7.5-7.5s-3.357-7.502-7.5-7.502zm-320.17-196.105 46.383-14.717c.025-.008.051-.016.076-.024l25.107-7.966 71.566 22.707v12.082h-143.132zm-6.161 57.309-19.116-17.961v-12.266h193.688v12.266l-19.116 17.962c-4.221 3.967-5.943 9.914-4.497 15.519l4.786 18.566-70.308-29.294c-4.898-2.041-10.518-2.041-15.418 0l-70.306 29.294 4.786-18.566c1.444-5.606-.279-11.553-4.499-15.52zm-29.808 68.535c-.878-1.709-.533-3.264-.25-4.038s1.023-2.184 2.796-2.923l103.05-42.937c1.234-.515 2.647-.515 3.88-.001l103.051 42.938c1.772.739 2.513 2.148 2.796 2.923.284.774.628 2.329-.264 4.065l-35.718 70.233h-143.62z"/><path d="m290.807 473.219h-8.72l-11.729-13.315c-.104-.118-.213-.233-.324-.346-2.853-2.852-6.645-4.423-10.678-4.423l-5.197-.046-1.293-2.126c-2.721-4.472-7.663-7.249-12.898-7.249h-89.285c-10.549 0-19.834 6.721-23.133 16.733l-3.767 10.771h-7.795c-4.143 0-7.5 3.357-7.5 7.5s3.357 7.5 7.5 7.5h13.094c.008 0 .016.002.023.002.008 0 .017-.002.025-.002h161.677c4.143 0 7.5-3.357 7.5-7.5s-3.358-7.499-7.5-7.499zm-149.075-5.89c.019-.051.036-.103.053-.154 1.258-3.864 4.833-6.46 8.896-6.46l89.37.046 1.293 2.126c2.721 4.472 7.663 7.249 12.898 7.249l5.163.029 2.69 3.055h-122.423z"/><path d="m327.102 473.219h-8.2c-4.143 0-7.5 3.357-7.5 7.5s3.357 7.5 7.5 7.5h8.2c4.143 0 7.5-3.357 7.5-7.5s-3.358-7.5-7.5-7.5z"/><path d="m67.386 445.714h-19.544c-4.143 0-7.5 3.357-7.5 7.5s3.357 7.5 7.5 7.5h19.544c4.143 0 7.5-3.357 7.5-7.5s-3.358-7.5-7.5-7.5z"/><path d="m477.892 445.714h-39.81c-4.143 0-7.5 3.357-7.5 7.5s3.357 7.5 7.5 7.5h39.81c4.143 0 7.5-3.357 7.5-7.5s-3.358-7.5-7.5-7.5z"/><path d="m405.31 473.219h-36.401c-4.143 0-7.5 3.357-7.5 7.5s3.357 7.5 7.5 7.5h36.401c4.143 0 7.5-3.357 7.5-7.5s-3.358-7.5-7.5-7.5z"/><path d="m259.251 86.008c.954.404 1.944.595 2.919.595 2.922 0 5.7-1.719 6.91-4.58 1.253-2.961 4.139-4.875 7.353-4.875h97.025c14.639 0 26.548-11.909 26.548-26.548 0-14.638-11.909-26.547-26.548-26.547h-11.697c-4.143 0-7.5 3.358-7.5 7.5s3.357 7.5 7.5 7.5h11.697c6.367 0 11.548 5.18 11.548 11.548 0 6.367-5.181 11.547-11.548 11.547h-97.025c-9.253 0-17.562 5.507-21.167 14.031-1.615 3.815.171 8.216 3.985 9.829z"/><path d="m368.069 98.077c0 4.142 3.357 7.5 7.5 7.5 28.428 0 51.555-23.127 51.555-51.555 0-4.142-3.357-7.5-7.5-7.5s-7.5 3.358-7.5 7.5c0 20.157-16.398 36.555-36.555 36.555-4.142 0-7.5 3.358-7.5 7.5z"/></g></g></g></svg>